<?xml version="1.0" encoding="UTF-8"?>
<!DOCTYPE svg PUBLIC "-//W3C//DTD SVG 1.1//EN" "http://www.w3.org/Graphics/SVG/1.1/DTD/svg11.dtd">
<!-- Creator: CorelDRAW -->
<svg xmlns="http://www.w3.org/2000/svg" xml:space="preserve" width="20px" height="20px" version="1.1" style="shape-rendering:geometricPrecision; text-rendering:geometricPrecision; image-rendering:optimizeQuality; fill-rule:evenodd; clip-rule:evenodd"
viewBox="0 0 20 20"
 xmlns:xlink="http://www.w3.org/1999/xlink"
 xmlns:xodm="http://www.corel.com/coreldraw/odm/2003">
 <defs>
  <style type="text/css">
   <![CDATA[
    .fil0 {fill:#E31E24;fill-rule:nonzero}
   ]]>
  </style>
 </defs>
 <g id="Слой_x0020_1">
  <metadata id="CorelCorpID_0Corel-Layer"/>
  <path class="fil0" d="M20 3.13c-0.73,0.36 -1.52,0.6 -2.36,0.72 0.85,-0.56 1.5,-1.46 1.81,-2.52 -0.8,0.52 -1.68,0.9 -2.61,1.1 -0.75,-0.88 -1.81,-1.43 -2.99,-1.43 -2.27,0 -4.11,2.03 -4.11,4.54 0,0.36 0.04,0.7 0.11,1.04 -3.41,-0.19 -6.43,-2 -8.46,-4.75 -0.35,0.67 -0.55,1.46 -0.55,2.29 0,1.57 0.72,2.96 1.82,3.78 -0.67,-0.02 -1.3,-0.23 -1.86,-0.57 0,0.02 0,0.04 0,0.06 0,2.2 1.42,4.04 3.29,4.46 -0.34,0.1 -0.7,0.16 -1.07,0.16 -0.27,0 -0.53,-0.04 -0.78,-0.09 0.52,1.81 2.04,3.12 3.83,3.16 -1.4,1.22 -3.17,1.95 -5.09,1.95 -0.34,0 -0.66,-0.02 -0.98,-0.07 1.82,1.29 3.97,2.04 6.29,2.04 7.55,0 11.68,-6.92 11.68,-12.93 0,-0.2 -0.01,-0.39 -0.02,-0.59 0.81,-0.63 1.5,-1.44 2.05,-2.35z"/>
 </g>
</svg>
