<?xml version="1.0" encoding="UTF-8"?>
<!DOCTYPE svg PUBLIC "-//W3C//DTD SVG 1.1//EN" "http://www.w3.org/Graphics/SVG/1.1/DTD/svg11.dtd">
<!-- Creator: CorelDRAW -->
<svg xmlns="http://www.w3.org/2000/svg" xml:space="preserve" width="20px" height="20px" version="1.1" style="shape-rendering:geometricPrecision; text-rendering:geometricPrecision; image-rendering:optimizeQuality; fill-rule:evenodd; clip-rule:evenodd"
viewBox="0 0 20 20"
 xmlns:xlink="http://www.w3.org/1999/xlink"
 xmlns:xodm="http://www.corel.com/coreldraw/odm/2003">
 <defs>
  <style type="text/css">
   <![CDATA[
    .fil0 {fill:#E31E24;fill-rule:nonzero}
   ]]>
  </style>
 </defs>
 <g id="Слой_x0020_1">
  <metadata id="CorelCorpID_0Corel-Layer"/>
  <path class="fil0" d="M3.68 0l1.48 5.34 0 2.57 1.28 0 0 -2.57 1.5 -5.34 -1.29 0 -0.54 2.43c-0.15,0.71 -0.25,1.22 -0.29,1.52l-0.04 0c-0.06,-0.42 -0.16,-0.93 -0.29,-1.53l-0.52 -2.42 -1.29 0zm5.75 2.02c-0.43,0 -0.78,0.08 -1.05,0.25 -0.27,0.18 -0.46,0.45 -0.59,0.83 -0.12,0.38 -0.19,0.87 -0.19,1.5l0 0.84c0,0.61 0.06,1.11 0.17,1.48 0.11,0.37 0.29,0.64 0.55,0.82 0.26,0.17 0.62,0.26 1.08,0.26 0.45,0 0.8,-0.09 1.06,-0.26 0.26,-0.17 0.45,-0.44 0.57,-0.82 0.11,-0.37 0.17,-0.87 0.17,-1.48l0 -0.84c0,-0.62 -0.06,-1.12 -0.18,-1.49 -0.12,-0.38 -0.31,-0.65 -0.56,-0.83 -0.26,-0.18 -0.6,-0.26 -1.03,-0.26zm2.45 0.11l0 4.31c0,0.54 0.09,0.93 0.27,1.18 0.18,0.25 0.47,0.38 0.85,0.38 0.55,0 0.97,-0.27 1.24,-0.8l0.03 0 0.11 0.71 1.02 0 0 -5.78 -1.3 0 0 4.59c-0.05,0.11 -0.12,0.19 -0.23,0.26 -0.1,0.07 -0.21,0.11 -0.32,0.11 -0.14,0 -0.23,-0.06 -0.29,-0.17 -0.05,-0.11 -0.08,-0.29 -0.08,-0.55l0 -4.24 -1.3 0zm-2.48 0.78c0.18,0 0.31,0.1 0.39,0.29 0.07,0.19 0.1,0.49 0.1,0.91l0 1.8c0,0.42 -0.03,0.73 -0.1,0.92 -0.08,0.19 -0.2,0.28 -0.39,0.29 -0.18,0 -0.3,-0.1 -0.37,-0.29 -0.07,-0.19 -0.11,-0.5 -0.11,-0.92l0 -1.8c0,-0.42 0.04,-0.72 0.11,-0.91 0.07,-0.19 0.2,-0.29 0.37,-0.29zm-6.4 6.09c-1.1,0 -2,0.9 -2,2l0 7c0,1.1 0.9,2 2,2l14 0c1.1,0 2,-0.9 2,-2l0 -7c0,-1.1 -0.9,-2 -2,-2l-14 0zm7.05 2l1.06 0 0 2.57 0 0c0.1,-0.19 0.23,-0.34 0.41,-0.45 0.18,-0.12 0.36,-0.17 0.57,-0.17 0.26,0 0.46,0.07 0.61,0.21 0.15,0.13 0.25,0.36 0.32,0.66 0.07,0.31 0.1,0.74 0.1,1.29l0 0.77 0 0c0,0.72 -0.09,1.26 -0.26,1.6 -0.18,0.34 -0.45,0.51 -0.82,0.51 -0.21,0 -0.4,-0.05 -0.57,-0.14 -0.17,-0.1 -0.29,-0.23 -0.38,-0.39l-0.02 0 -0.11 0.46 -0.91 0 0 -6.92zm-6.56 0.25l3.25 0 0 0.88 -1.09 0 0 5.79 -1.07 0 0 -5.79 -1.09 0 0 -0.88zm11.61 1.7c0.37,0 0.66,0.07 0.87,0.21 0.2,0.14 0.34,0.35 0.42,0.64 0.08,0.3 0.12,0.7 0.12,1.21l0 0.84 -1.83 0 0 0.25c0,0.31 0.01,0.54 0.03,0.7 0.01,0.15 0.05,0.27 0.11,0.34 0.06,0.07 0.15,0.11 0.27,0.11 0.16,0 0.28,-0.07 0.34,-0.19 0.06,-0.13 0.09,-0.34 0.1,-0.64l0.95 0.06c0,0.04 0,0.1 0,0.17 0,0.45 -0.12,0.79 -0.37,1.01 -0.25,0.23 -0.59,0.34 -1.04,0.34 -0.54,0 -0.92,-0.17 -1.14,-0.51 -0.22,-0.34 -0.33,-0.87 -0.33,-1.58l0 -0.85c0,-0.73 0.11,-1.27 0.34,-1.6 0.22,-0.34 0.61,-0.51 1.16,-0.51zm-8.69 0.1l1.1 0 0 3.58c0,0.21 0.02,0.37 0.07,0.46 0.05,0.09 0.13,0.14 0.24,0.14 0.1,0 0.19,-0.03 0.28,-0.09 0.08,-0.06 0.15,-0.13 0.19,-0.22l0 -3.87 1.1 0 0 4.87 0 0 -0.86 0 -0.1 -0.6 -0.02 0c-0.24,0.45 -0.59,0.68 -1.05,0.68 -0.33,0 -0.56,-0.11 -0.72,-0.32 -0.15,-0.21 -0.23,-0.54 -0.23,-0.99l0 -3.64zm8.66 0.64c-0.11,0 -0.2,0.04 -0.26,0.11 -0.05,0.07 -0.09,0.18 -0.11,0.34 -0.02,0.15 -0.02,0.39 -0.02,0.71l0 0.35 0.8 0 0 -0.35c0,-0.32 -0.01,-0.55 -0.03,-0.71 -0.02,-0.17 -0.06,-0.28 -0.12,-0.35 -0.05,-0.06 -0.14,-0.1 -0.26,-0.1zm-3.48 0.04c-0.1,0 -0.2,0.04 -0.29,0.13 -0.09,0.08 -0.16,0.19 -0.19,0.32l0 2.77c0.05,0.09 0.11,0.15 0.18,0.19 0.08,0.04 0.16,0.07 0.26,0.07 0.11,0 0.2,-0.05 0.27,-0.13 0.07,-0.09 0.12,-0.23 0.15,-0.43 0.03,-0.2 0.04,-0.48 0.04,-0.84l0 -0.62c0,-0.39 -0.01,-0.68 -0.03,-0.89 -0.03,-0.2 -0.07,-0.35 -0.13,-0.44 -0.06,-0.09 -0.15,-0.13 -0.26,-0.13z"/>
 </g>
</svg>
